<svg xmlns="http://www.w3.org/2000/svg" width="48" height="48" viewBox="0 0 48 48">
    <g fill="none" fill-rule="evenodd">
        <g fill-rule="nonzero">
            <path fill="#000" d="M2.798 26.208C1.32 26.208.11 24.998.11 23.52c0-9.811 6.183-18.682 15.39-22.109 1.41-.537 2.956.202 3.494 1.613.537 1.411-.202 2.957-1.613 3.494C10.258 9.14 5.554 15.994 5.554 23.52c-.068 1.478-1.277 2.688-2.756 2.688z"/>
            <path fill="#14E0F0" d="M23.63 47.04c-8.736 0-16.665-4.771-20.832-12.5-.672-1.343-.201-2.956 1.143-3.695 1.344-.672 2.957-.202 3.696 1.142 3.158 5.914 9.273 9.61 15.993 9.61h.068c4.838 0 9.408-1.949 12.768-5.376 3.427-3.427 5.241-7.997 5.241-12.835-.067-9.072-6.854-16.733-15.792-17.876-1.478-.201-2.553-1.545-2.352-3.024.202-1.478 1.546-2.553 3.024-2.352C38.213 1.613 47.083 11.626 47.15 23.386c.068 6.316-2.352 12.23-6.787 16.665-4.435 4.503-10.349 6.989-16.598 6.989h-.135z"/>
        </g>
        <path stroke="#14E0F0" stroke-linecap="round" stroke-linejoin="round" stroke-width="5.616" d="M15.24 27.738L21.591 32.4 30.84 15.6"/>
    </g>
</svg>
