<svg xmlns="http://www.w3.org/2000/svg" width="44" height="62" viewBox="0 0 44 62">
    <g fill="#14E0F0">
        <path d="M.204 27.892c-.475 1.267-.104 2.695.928 3.57 1.955 1.957 5.975 9.018 7.964 13.994 1.358 3.393 4.34 6.724 6.602 8.922.974.958 1.52 2.268 1.518 3.634v.374c0 1.697 1.375 3.073 3.072 3.073h16.384c1.696 0 3.072-1.376 3.072-3.073v-3.145c-.01-.26.09-.513.273-.697 3.78-3.456 3.823-9.226 3.823-9.47v-16.21c.038-2.193-1.616-4.047-3.798-4.259-.82-.054-1.638.14-2.346.558V23.57c.008-1.476-.782-2.84-2.066-3.568-1.284-.727-2.861-.702-4.122.065-.131-1.382-.961-2.6-2.198-3.227-1.238-.628-2.71-.579-3.902.13v-1.695c2.541-1.442 4.107-4.143 4.096-7.065 0-4.525-3.668-8.192-8.192-8.192-4.525 0-8.192 3.667-8.192 8.192-.011 2.922 1.555 5.623 4.096 7.065v16.486c.029 1.21-.136 2.414-.488 3.571-.11.342-.39.603-.738.688-.328.083-.676-.008-.922-.241-.8-.763-1.51-1.614-2.117-2.538-1.777-2.658-6.248-7.623-9.047-7.623-1.573-.033-3.019.855-3.7 2.273zM15.168 8.21c0-3.394 2.75-6.144 6.144-6.144 3.393 0 6.144 2.75 6.144 6.144.01 1.752-.737 3.423-2.048 4.585V8.211c0-2.263-1.834-4.096-4.096-4.096-2.263 0-4.096 1.833-4.096 4.096v4.585c-1.311-1.162-2.058-2.833-2.048-4.585zm-3.924 26.168c.694 1.053 1.506 2.023 2.42 2.893.753.712 1.818.99 2.824.736 1.024-.255 1.847-1.018 2.18-2.02.425-1.367.626-2.794.596-4.226V8.211c0-1.132.917-2.048 2.048-2.048 1.13 0 2.048.916 2.048 2.048v21.503c0 .566.458 1.025 1.024 1.025.565 0 1.024-.459 1.024-1.025V20.5c0-1.131.917-2.048 2.048-2.048 1.13 0 2.048.917 2.048 2.048v9.215c0 .566.458 1.025 1.024 1.025.565 0 1.024-.459 1.024-1.025v-6.143c0-1.132.917-2.048 2.048-2.048s2.048.916 2.048 2.048v7.168c0 .565.458 1.023 1.024 1.023.565 0 1.024-.458 1.024-1.023V28.69c-.002-.544.215-1.065.6-1.447.423-.419 1.005-.636 1.598-.596 1.107.144 1.925 1.1 1.898 2.216v16.21c0 .05-.052 5.12-3.158 7.96-.607.572-.948 1.372-.938 2.207v3.145c0 .566-.459 1.025-1.024 1.025H20.288c-.566 0-1.024-.459-1.024-1.025v-.374c.001-1.92-.77-3.759-2.14-5.104-1.734-1.684-4.837-4.993-6.125-8.214-2.107-5.266-6.277-12.537-8.42-14.68-.487-.487-.65-.938-.484-1.339.371-.643 1.066-1.03 1.809-1.009 1.391 0 5.165 3.45 7.34 6.713z"/>
        <path d="M13.12 16.955c.408 0 .778-.243.94-.618.162-.375.086-.81-.194-1.108-3.548-3.75-3.74-9.557-.448-13.534.243-.28.315-.671.189-1.02-.127-.35-.433-.603-.8-.662-.367-.059-.737.085-.967.377-3.95 4.772-3.72 11.74.533 16.242.194.206.464.323.747.323zM30.869 14.242c.241.124.523.147.78.063.26-.083.474-.266.598-.507C34.486 9.438 33.91 4.164 30.784.39c-.23-.292-.6-.436-.967-.377-.367.06-.673.312-.8.661-.127.35-.055.74.189 1.02 2.605 3.144 3.085 7.538 1.22 11.17-.259.503-.06 1.12.443 1.378z"/>
    </g>
</svg>
