<svg xmlns="http://www.w3.org/2000/svg" width="59" height="57" viewBox="0 0 59 57">
    <g fill="#14E0F0">
        <path d="M38.987 30.04H1.917C.86 30.04 0 29.18 0 28.121c0-1.059.859-1.917 1.917-1.917h37.07c1.058 0 1.917.858 1.917 1.917 0 1.058-.859 1.917-1.917 1.917z"/>
        <path d="M28.76 40.265c-.49 0-.98-.186-1.354-.562-.75-.749-.75-1.963 0-2.713l8.87-8.87-8.87-8.872c-.75-.749-.75-1.963 0-2.712.75-.75 1.963-.75 2.712 0l10.226 10.226c.75.749.75 1.963 0 2.712L30.118 39.7c-.375.379-.866.565-1.357.565z"/>
        <path d="M30.678 56.244c-11.635 0-21.906-7-26.173-17.835-.389-.981.097-2.096 1.081-2.485.982-.383 2.099.095 2.488 1.085 3.684 9.354 12.557 15.4 22.604 15.4 13.391 0 24.287-10.896 24.287-24.287 0-13.39-10.896-24.287-24.287-24.287-10.047 0-18.92 6.046-22.604 15.4-.392.99-1.506 1.468-2.488 1.084-.984-.388-1.47-1.503-1.081-2.484C8.772 7 19.043 0 30.678 0 46.184 0 58.8 12.617 58.8 28.122c0 15.505-12.616 28.122-28.122 28.122z"/>
    </g>
</svg>
