<svg xmlns="http://www.w3.org/2000/svg" width="62" height="62" viewBox="0 0 62 62">
    <g fill="#14E0F0">
        <path d="M35.51 18.235c-.662 0-1.2.538-1.2 1.2 0 .662.538 1.2 1.2 1.2.662 0 1.2-.538 1.2-1.2 0-.662-.538-1.2-1.2-1.2zM13.818 61.085c.465.469 1.222.474 1.693.01l5.817-5.73c.988-.988 1.288-2.451.854-3.723l1.25-1.206c.674-.651 1.561-1.01 2.499-1.01h15.948c2.83 0 5.504-1.086 7.53-3.06.084-.08-.632.764 10.881-12.997 1.708-2.02 1.452-5.054-.57-6.763-2.01-1.694-5.02-1.45-6.732.535l-7.08 7.276c-.893-1.1-2.256-1.786-3.73-1.786H28.802c-1.903-.796-3.923-1.2-6.007-1.2-5.775 0-10.82 2.667-13.528 7.671-1.14-.216-2.344.13-3.209.994L.35 45.82c-.466.468-.467 1.224-.002 1.692l13.47 13.573zm8.975-27.254c1.838 0 3.614.37 5.282 1.099.152.066.315.1.48.1H42.18c1.3 0 2.4 1.061 2.4 2.4 0 1.323-1.077 2.4-2.4 2.4H32.39c-.662 0-1.2.536-1.2 1.199s.538 1.2 1.2 1.2h9.788c2.646 0 4.799-2.153 4.799-4.8 0-.21-.015-.42-.043-.627 6.848-7.039 7.814-8.028 7.855-8.077.855-1.01 2.373-1.137 3.383-.286 1.01.855 1.138 2.371.28 3.386L47.694 44.69c-1.57 1.508-3.633 2.338-5.814 2.338H25.93c-1.563 0-3.043.598-4.165 1.682l-1.02.984-9.398-9.398c2.197-4.12 6.319-6.464 11.445-6.464zM7.755 41.79c.396-.395 1.003-.466 1.485-.168.184.112 10.445 10.398 10.508 10.483.35.473.3 1.144-.11 1.556l-4.959 4.885L2.892 46.669l4.863-4.877z"/>
        <path d="M18.715 25.433h28.792c1.984 0 3.599-1.614 3.599-3.6V3.6c0-1.985-1.615-3.599-3.6-3.599H18.716c-1.985 0-3.6 1.614-3.6 3.6v18.234c0 1.985 1.615 3.599 3.6 3.599zM48.706 9.597h-31.19V7.198h31.19v2.4zm-1.2 13.437H18.716c-.662 0-1.2-.539-1.2-1.2v-9.837h31.191v9.837c0 .661-.538 1.2-1.2 1.2zM18.716 2.4h28.792c.661 0 1.2.538 1.2 1.2v1.199H17.514v-1.2c0-.661.538-1.2 1.2-1.2z"/>
        <path d="M45.107 18.235H40.31c-.663 0-1.2.537-1.2 1.2 0 .662.537 1.2 1.2 1.2h4.798c.663 0 1.2-.538 1.2-1.2 0-.663-.537-1.2-1.2-1.2z"/>
    </g>
</svg>
