<svg width="102" height="34" viewBox="0 0 102 34" fill="none" xmlns="http://www.w3.org/2000/svg">
<g id="Group">
<path id="Path" d="M102 28.9362C102 31.3958 99.9745 33.4213 97.5149 33.4213H4.91919C2.45961 33.4213 0.434082 31.3958 0.434082 28.9362V4.70215C0.434082 2.24257 2.45961 0.217041 4.91919 0.217041H97.5149C99.9745 0.217041 102 2.24257 102 4.70215V28.9362Z" fill="black"/>
<g id="Group_2">
<path id="Path_2" d="M26.9106 21.3405C26.4043 22.4979 26.1149 23.0767 25.3915 24.0894C24.4511 25.5362 23.0766 27.4171 21.3404 27.4171C19.8213 27.4171 19.4596 26.4767 17.434 26.4767C15.4085 26.4767 14.9745 27.4894 13.4553 27.4171C11.7915 27.4171 10.4894 25.7533 9.47659 24.3064C6.8 20.183 6.51063 15.3362 8.17446 12.8043C9.33191 10.9958 11.2128 9.91071 12.9489 9.91071C14.7574 9.91071 15.8425 10.9235 17.3617 10.9235C18.8085 10.9235 19.6766 9.91071 21.7021 9.91071C23.2936 9.91071 24.8851 10.7788 26.1149 12.2256C22.3532 14.3235 23.0043 19.8213 26.9106 21.3405Z" fill="white"/>
<path id="Path_3" d="M20.2553 8.24686C20.9787 7.30643 21.5575 5.93196 21.3404 4.5575C20.1107 4.62984 18.6638 5.42558 17.8681 6.43835C17.0724 7.37877 16.4936 8.75324 16.7107 10.0554C18.0851 10.0554 19.4596 9.25962 20.2553 8.24686Z" fill="white"/>
</g>
<g id="Group_3">
<path id="Shape" fill-rule="evenodd" clip-rule="evenodd" d="M31.1787 24.8852L35.0851 13.5277H36.9659L40.8723 24.8852H39.0638L37.9064 21.4128H34.1447L32.9872 24.8852H31.1787ZM36.4596 17.0001C36.3149 16.4213 36.1702 15.9149 36.0255 15.4086C35.8808 15.9873 35.7362 16.4937 35.5191 17.0001L34.5064 20.0383H37.4723L36.4596 17.0001Z" fill="white"/>
<path id="Shape_2" fill-rule="evenodd" clip-rule="evenodd" d="M43.1873 17.7958C43.8383 16.9277 44.7788 16.4937 45.9362 16.4937C46.949 16.4937 47.8171 16.9277 48.4681 17.5788C49.1192 18.3745 49.4809 19.3873 49.4809 20.6171C49.4809 21.9915 49.0468 23.149 48.3234 23.9447C47.6724 24.6681 46.7319 25.0298 45.7192 25.0298C44.7064 25.0298 43.8383 24.6681 43.3319 24.0171V28.1405H41.5958V19.3873C41.5958 18.3022 41.5958 17.5064 41.5234 16.783V16.6383H43.1149L43.1873 17.7958ZM47.7447 20.7617C47.7447 19.3873 47.0213 17.9405 45.5022 17.9405C44.5617 17.9405 43.6937 18.5915 43.4043 19.6043V19.749C43.3319 19.8937 43.3319 20.0383 43.3319 20.183V21.5575C43.3319 21.7745 43.3319 21.9915 43.4043 22.1362C43.6213 23.0766 44.4894 23.7277 45.4298 23.7277C46.8766 23.7277 47.7447 22.5702 47.7447 20.7617Z" fill="white"/>
<path id="Shape_3" fill-rule="evenodd" clip-rule="evenodd" d="M52.0851 17.7958C52.7362 16.9277 53.6766 16.4937 54.834 16.4937C55.7745 16.4937 56.7149 16.9277 57.3659 17.5788C58.017 18.3745 58.3787 19.3873 58.3787 20.6171C58.3787 21.9915 57.9447 23.149 57.2213 23.9447C56.5702 24.6681 55.6298 25.0298 54.617 25.0298C53.6042 25.0298 52.7362 24.6681 52.2298 24.0171V28.1405H50.4936V19.3873C50.4936 18.3022 50.4936 17.5064 50.4213 16.783V16.6383H52.0128L52.0851 17.7958ZM56.6425 20.7617C56.6425 19.3873 55.9191 17.9405 54.4 17.9405C53.3872 17.9405 52.5915 18.5915 52.3021 19.6043V19.749C52.2298 19.8937 52.2298 20.0383 52.2298 20.183V21.5575C52.2298 21.7745 52.2298 21.9915 52.3021 22.1362C52.5191 23.0766 53.3872 23.7277 54.3276 23.7277C55.7745 23.7277 56.6425 22.5702 56.6425 20.7617Z" fill="white"/>
<path id="Path_4" d="M65.9021 18.3745C64.3106 17.7234 63.8042 17.2894 63.8042 16.349C63.8042 15.5532 64.3829 14.8298 65.7574 14.8298C66.8425 14.8298 67.5659 15.1915 67.7829 15.3362L67.9276 15.4085L68.434 13.9617L68.3616 13.8894C68.0723 13.7447 67.2765 13.3107 65.8297 13.3107C63.6595 13.3107 62.068 14.6128 62.068 16.4936C62.068 18.0128 63.0084 19.0256 65.1063 19.8213C66.5531 20.4 67.1319 20.9064 67.1319 21.9192C67.1319 23.0043 66.2638 23.6553 64.9616 23.6553C64.0936 23.6553 63.1531 23.366 62.5021 22.9319L62.3574 22.8596L61.9233 24.3064L61.9957 24.3788C62.6467 24.8128 63.8765 25.1022 64.8893 25.1022C67.8553 25.1022 68.868 23.2936 68.868 21.7745C68.868 20.183 67.9999 19.1702 65.9021 18.3745Z" fill="white"/>
<path id="Path_5" d="M71.9063 14.7575L70.2425 15.2639V16.7107H69.0127V18.0852H70.2425V22.2809C70.2425 23.2937 70.4595 24.0171 70.8212 24.4511C71.1829 24.8852 71.834 25.1022 72.485 25.1022C73.1361 25.1022 73.5701 24.9575 73.7872 24.8852H73.8595L73.7872 23.5107L73.6425 23.583C73.4255 23.6554 73.2084 23.6554 72.8467 23.6554C72.1957 23.6554 71.9063 23.2213 71.9063 22.2086V18.0128H74.0042V16.6384H71.9063V14.7575Z" fill="white"/>
<path id="Shape_4" fill-rule="evenodd" clip-rule="evenodd" d="M74.1489 20.8341C74.1489 18.3022 75.8851 16.4937 78.2723 16.4937C79.4298 16.4937 80.4425 16.9277 81.1659 17.6511C81.8894 18.3745 82.2511 19.4596 82.2511 20.6894C82.2511 23.7277 80.0808 25.1022 78.1276 25.1022C75.8128 25.1022 74.1489 23.366 74.1489 20.8341ZM80.5149 20.7617C80.5149 19.3873 79.7915 17.8681 78.2723 17.8681C76.6808 17.8681 75.9574 19.3873 75.9574 20.7617C75.9574 22.4979 76.8979 23.7277 78.2 23.7277C79.5745 23.7277 80.5149 22.4979 80.5149 20.7617Z" fill="white"/>
<path id="Path_6" d="M87.5319 16.566H87.4595C87.3149 16.4937 87.1702 16.4937 87.0255 16.4937C86.1574 16.4937 85.2893 17 84.8553 17.8681L84.7829 16.6383H83.2638V16.783C83.3361 17.4341 83.3361 18.2298 83.3361 19.2426V24.8851H85.0723V20.4724C85.0723 20.2554 85.0723 20.0383 85.1446 19.8213C85.3617 18.7362 86.0851 18.0851 86.9532 18.0851C87.0978 18.0851 87.2425 18.0851 87.3872 18.0851H87.6042V16.566H87.5319Z" fill="white"/>
<path id="Shape_5" fill-rule="evenodd" clip-rule="evenodd" d="M87.5319 20.9788C87.5319 18.3022 89.1233 16.4937 91.4382 16.4937C93.9702 16.4937 94.8382 18.5915 94.7659 20.3277C94.7659 20.4972 94.7411 20.6667 94.7205 20.8071C94.706 20.9064 94.6936 20.9912 94.6936 21.0511V21.1958H89.1233C89.268 23.5107 91.0042 23.7277 91.7276 23.7277C92.8127 23.7277 93.4638 23.583 93.8978 23.366L94.0425 23.2937L94.4042 24.5958L94.3319 24.6681C93.7531 24.8851 92.8851 25.1745 91.5829 25.1745C89.1233 25.1745 87.5319 23.5107 87.5319 20.9788ZM92.5233 18.3022C92.234 17.9405 91.7999 17.7958 91.2936 17.7958C89.9914 17.7958 89.4127 18.8809 89.1957 19.8937H93.1021C93.1021 19.532 93.0297 18.8085 92.5233 18.3022Z" fill="white"/>
</g>
<g id="Group_4">
<path id="Path_7" d="M32.1192 7.95748C32.1192 9.04259 32.6256 9.47663 33.349 9.47663C34.0724 9.47663 34.4341 9.04259 34.4341 8.5362H35.1575V8.60854C35.1575 9.33195 34.5788 10.2 33.349 10.2C32.1915 10.2 31.4681 9.47663 31.4681 8.02982V7.4511C31.4681 6.00429 32.1915 5.28088 33.4213 5.28088C34.5788 5.28088 35.2298 6.07663 35.2298 6.94471H34.5064C34.5064 6.43833 34.1447 5.93195 33.4213 5.93195C32.6979 5.93195 32.1915 6.43833 32.1915 7.52344V7.95748H32.1192Z" fill="white"/>
<path id="Shape_6" fill-rule="evenodd" clip-rule="evenodd" d="M39.1362 8.31916V8.0298C39.1362 7.01704 38.5575 6.22129 37.5447 6.29363C36.4596 6.29363 35.8809 7.01704 35.8809 8.0298V8.31916C35.8809 9.33193 36.4596 10.0553 37.5447 10.0553C38.5575 10.0553 39.1362 9.33193 39.1362 8.31916ZM36.6043 8.31916V8.0298C36.6043 7.3064 36.8936 6.80001 37.5447 6.87236C38.1958 6.87236 38.4851 7.3064 38.4851 8.0298V8.31916C38.4851 8.97023 38.1234 9.47661 37.5447 9.47661C36.8936 9.47661 36.6043 9.04257 36.6043 8.31916Z" fill="white"/>
<path id="Path_8" d="M40.0766 6.29365H40.8V6.80004C40.9447 6.58302 41.3064 6.22131 41.8851 6.22131C42.6085 6.22131 43.1873 6.7277 43.1873 7.59578V9.98302H42.4638V7.74046C42.4638 7.16174 42.1021 6.87238 41.5958 6.87238C41.017 6.87238 40.7277 7.30642 40.7277 7.8128V10.0554H40.0043V6.29365H40.0766Z" fill="white"/>
<path id="Path_9" d="M45.5022 6.22131C46.3703 6.22131 46.8766 6.7277 46.8766 7.30642H46.2256C46.2256 7.01706 46.0086 6.7277 45.5022 6.7277C45.0681 6.7277 44.7788 6.94472 44.7788 7.23408C44.7788 7.66812 45.2852 7.74046 45.7192 7.8128C46.4426 7.95748 46.949 8.1745 46.949 8.82557C46.949 9.54897 46.3703 9.98302 45.4298 9.98302C44.5618 9.98302 43.983 9.54897 43.983 8.89791H44.7064C44.7788 9.18727 44.9958 9.40429 45.5022 9.40429C46.0086 9.40429 46.2979 9.18727 46.2979 8.89791C46.2979 8.53621 45.8639 8.39153 45.3575 8.31919C44.7064 8.1745 44.1277 7.95748 44.1277 7.30642C44.0554 6.58302 44.7064 6.22131 45.5022 6.22131Z" fill="white"/>
<path id="Shape_7" fill-rule="evenodd" clip-rule="evenodd" d="M48.5404 4.91919L47.8894 5.85961H48.3957L49.1915 4.91919H48.5404ZM48.5404 6.29366H47.817V9.98302H48.5404V6.29366Z" fill="white"/>
<path id="Shape_8" fill-rule="evenodd" clip-rule="evenodd" d="M52.0129 9.40429V9.98302C52.0129 10.4894 51.6512 10.8511 51.2171 10.8511C50.7107 10.8511 50.4214 10.6341 50.349 10.3447H49.6256C49.698 10.9234 50.132 11.4298 51.1448 11.4298C51.9405 11.4298 52.7363 10.9234 52.7363 9.98302V6.29365H52.0129V6.80004C51.8682 6.51068 51.4341 6.22131 50.9278 6.22131C50.0597 6.22131 49.481 6.87238 49.481 7.95748V8.24685C49.481 9.40429 50.0597 9.98302 50.9278 9.98302C51.4341 9.98302 51.8682 9.69365 52.0129 9.40429ZM50.132 8.24685V8.02982C50.132 7.23408 50.4937 6.87238 51.0724 6.87238C51.5788 6.87238 51.9405 7.30642 51.9405 8.02982V8.24685C51.9405 8.97025 51.6512 9.40429 51.0724 9.40429C50.4937 9.40429 50.132 8.97025 50.132 8.24685Z" fill="white"/>
<path id="Path_10" d="M56.8597 9.983H56.1363V9.47662C55.9916 9.76598 55.6299 10.0553 55.0512 10.0553C54.2554 10.0553 53.749 9.6213 53.749 8.75321V6.29364H54.4724V8.53619C54.4724 9.18726 54.8341 9.40428 55.2682 9.40428C55.7746 9.40428 56.1363 9.11492 56.1363 8.53619V6.29364H56.8597V9.983Z" fill="white"/>
<path id="Shape_9" fill-rule="evenodd" clip-rule="evenodd" d="M57.8 7.95747V8.31917C57.8 9.40428 58.3788 10.0553 59.3915 10.1277C60.332 10.1277 60.766 9.6213 60.9107 9.04258H60.2596C60.1149 9.33194 59.8979 9.54896 59.4639 9.54896C58.9575 9.54896 58.5958 9.11492 58.5958 8.46385V8.39151H60.983V8.02981C60.983 7.01704 60.4043 6.29364 59.3915 6.29364C58.3788 6.29364 57.8 6.9447 57.8 7.95747ZM59.3192 6.80002C59.8256 6.80002 60.1873 7.23407 60.1873 7.81279H58.4511C58.4511 7.23407 58.8128 6.80002 59.3192 6.80002Z" fill="white"/>
<path id="Path_11" d="M61.8511 4.99152H62.5745V10.0553H61.8511V4.99152Z" fill="white"/>
<path id="Shape_10" fill-rule="evenodd" clip-rule="evenodd" d="M66.6979 8.31916V8.0298C66.6979 7.01704 66.1916 6.22129 65.1065 6.29363C64.0214 6.29363 63.4426 7.01704 63.4426 8.0298V8.31916C63.4426 9.33193 64.0214 10.0553 65.1065 10.0553C66.1192 10.0553 66.6979 9.33193 66.6979 8.31916ZM64.166 8.31916V8.0298C64.166 7.3064 64.5277 6.80001 65.1065 6.87236C65.7575 6.87236 66.0469 7.3064 66.0469 8.0298V8.31916C66.0469 8.97023 65.6852 9.47661 65.1065 9.47661C64.4554 9.47661 64.166 9.04257 64.166 8.31916Z" fill="white"/>
<path id="Shape_11" fill-rule="evenodd" clip-rule="evenodd" d="M68.8682 7.95747V8.31917C68.8682 9.40428 69.5192 10.0553 70.4597 10.1277C71.4001 10.1277 71.8341 9.6213 71.9788 9.04258H71.3277C71.1831 9.33194 70.966 9.54896 70.532 9.54896C70.0256 9.54896 69.6639 9.11492 69.6639 8.46385V8.39151H72.0511V8.02981C72.0511 7.01704 71.4724 6.29364 70.4597 6.29364C69.4469 6.29364 68.8682 6.9447 68.8682 7.95747ZM70.4597 6.80002C70.966 6.80002 71.3277 7.23407 71.3277 7.81279H69.5916C69.5916 7.23407 69.9533 6.80002 70.4597 6.80002Z" fill="white"/>
<path id="Path_12" d="M72.9193 6.29365H73.6427V6.80004C73.7873 6.58302 74.1491 6.22131 74.7278 6.22131C75.4512 6.22131 76.0299 6.7277 76.0299 7.59578V9.98302H75.3065V7.74046C75.3065 7.16174 74.9448 6.87238 74.4384 6.87238C73.8597 6.87238 73.5703 7.30642 73.5703 7.8128V10.0554H72.8469V6.29365H72.9193Z" fill="white"/>
<path id="Shape_12" fill-rule="evenodd" clip-rule="evenodd" d="M78.2723 7.95747V8.31917C78.2723 9.40428 78.9234 10.0553 79.8638 10.1277C80.8043 10.1277 81.2383 9.6213 81.383 9.04258H80.7319C80.5872 9.33194 80.3702 9.54896 79.9362 9.54896C79.4298 9.54896 79.0681 9.11492 79.0681 8.46385V8.39151H81.4553V8.02981C81.4553 7.01704 80.8766 6.29364 79.8638 6.29364C78.8511 6.29364 78.2723 6.9447 78.2723 7.95747ZM79.8638 6.80002C80.3702 6.80002 80.7319 7.23407 80.7319 7.81279H78.9957C78.9957 7.23407 79.3574 6.80002 79.8638 6.80002Z" fill="white"/>
<path id="Path_13" d="M82.3235 4.99152H83.0469V10.0553H82.3235V4.99152Z" fill="white"/>
</g>
</g>
</svg>
