<svg width="102" height="34" viewBox="0 0 102 34" fill="none" xmlns="http://www.w3.org/2000/svg">
<g id="Group">
<path id="Path" d="M101.566 28.9362C101.566 31.3958 99.5404 33.4213 97.0808 33.4213H4.48511C2.02553 33.4213 0 31.3958 0 28.9362V4.70215C0 2.24257 2.02553 0.217041 4.48511 0.217041H97.0808C99.5404 0.217041 101.566 2.24257 101.566 4.70215V28.9362Z" fill="black"/>
<g id="PLAY_14_">
<path id="Path_2" d="M7.5957 5.49786V16.783V27.9957L18.9531 16.783L7.5957 5.49786Z" fill="url(#paint0_linear)"/>
<path id="Path_3" d="M21.9914 13.7447L17.434 11.0681L7.5957 5.42554V5.49788L18.9531 16.783L21.9914 13.7447Z" fill="url(#paint1_linear)"/>
<path id="Path_4" d="M7.5957 27.9957V28.0681L17.434 22.4255L21.9914 19.8213L18.9531 16.783L7.5957 27.9957Z" fill="url(#paint2_linear)"/>
<path id="Path_5" d="M21.9914 13.7447L18.9531 16.783L21.9914 19.8213L27.1999 16.783L21.9914 13.7447Z" fill="url(#paint3_linear)"/>
</g>
<g id="Group_2">
<path id="Shape" fill-rule="evenodd" clip-rule="evenodd" d="M77.9106 24.3788C78.2723 24.5234 78.634 24.5958 79.0681 24.5958C79.8638 24.5958 80.5872 24.3064 81.0936 23.7277C81.6 23.0766 81.817 22.2809 81.817 21.1958C81.817 20.1107 81.6 19.2426 81.0936 18.6639C80.5872 18.0851 79.9362 17.7958 79.0681 17.7958C78.634 17.7958 78.2 17.8681 77.9106 18.0128C77.6213 18.1575 77.3319 18.4468 77.0426 18.8085H76.9702L76.8255 17.9405H76.0298V27.4171H77.0426V24.7405C77.0426 24.3788 77.0426 24.0171 76.9702 23.6554H77.0426C77.2596 23.9447 77.5489 24.2341 77.9106 24.3788ZM77.4766 19.2426C77.766 18.8809 78.2723 18.6639 78.9234 18.6639C79.5021 18.6639 79.9362 18.8809 80.2255 19.3149C80.5872 19.749 80.7319 20.4 80.7319 21.1958C80.7319 21.9915 80.5149 22.6426 80.2255 23.0766C79.9362 23.5107 79.5021 23.7277 78.9234 23.7277C78.2723 23.7277 77.766 23.5107 77.4766 23.149C77.1872 22.7873 77.0426 22.1362 77.0426 21.1958V20.9788C77.0426 20.183 77.1872 19.6043 77.4766 19.2426Z" fill="#F9F9F9"/>
<path id="Path_6" d="M84.0595 24.5234H83.0468V15.1915H84.0595V24.5234Z" fill="#F9F9F9"/>
<path id="Shape_2" fill-rule="evenodd" clip-rule="evenodd" d="M89.5575 23.583L89.7745 24.5234H90.4256V20.0383C90.4256 19.2426 90.2085 18.7362 89.8468 18.3745C89.4851 18.0128 88.9064 17.8681 88.1107 17.8681C87.749 17.8681 87.3149 17.9404 86.9532 18.0128C86.5192 18.1575 86.1575 18.3021 85.8681 18.4468L86.1575 19.1702C86.8809 18.8085 87.4596 18.6638 88.0383 18.6638C88.5447 18.6638 88.9064 18.8085 89.1234 19.0255C89.3404 19.3149 89.4851 19.6766 89.4851 20.183V20.617H88.4C86.3021 20.6894 85.217 21.4128 85.217 22.7149C85.217 23.366 85.4341 23.8 85.7958 24.1617C86.1575 24.5234 86.6638 24.6681 87.3149 24.6681C87.8213 24.6681 88.2553 24.5958 88.5447 24.4511C88.8341 24.3064 89.1234 24.017 89.4851 23.583H89.5575ZM88.9787 23.2936C88.617 23.6553 88.183 23.8 87.5319 23.8C87.0979 23.8 86.8085 23.7277 86.5192 23.5107C86.3021 23.366 86.2298 23.0766 86.2298 22.7149C86.2298 22.2809 86.3745 21.9192 86.7362 21.7021C87.0979 21.4851 87.6766 21.3404 88.4724 21.3404L89.4851 21.2681V21.8468C89.4851 22.4979 89.3404 22.9319 88.9787 23.2936Z" fill="#F9F9F9"/>
<path id="Path_7" d="M91.0765 17.9405H92.1616L93.6085 21.7022C93.8978 22.5703 94.1148 23.149 94.1872 23.583H94.2595C94.3319 23.366 94.4042 23.0043 94.5489 22.5703C94.6936 22.0639 95.2723 20.5447 96.1404 18.0128H97.2255L94.4042 25.4639C94.1148 26.1873 93.8255 26.6937 93.3914 27.0554C93.0297 27.3447 92.5957 27.4894 92.017 27.4894C91.7276 27.4894 91.4382 27.4894 91.1489 27.4171V26.6213C91.3659 26.6937 91.5829 26.6937 91.8723 26.6937C92.5233 26.6937 93.0297 26.332 93.3191 25.5362L93.6808 24.5958L91.0765 17.9405Z" fill="#F9F9F9"/>
</g>
<g id="Group_3">
<path id="Shape_3" fill-rule="evenodd" clip-rule="evenodd" d="M60.7871 18.6821L60.768 18.6639H61.5618L62.4298 18.1575H59.6086C58.8852 18.1575 57.9447 18.2298 57.149 18.8809C56.5703 19.3873 56.2809 20.0383 56.2809 20.6894C56.2809 21.7745 57.0766 22.8596 58.5235 22.8596H58.9575C58.8852 23.0043 58.8128 23.149 58.8128 23.366C58.8128 23.8 59.0298 24.0894 59.2469 24.3064C59.1765 24.3152 59.0977 24.324 59.0118 24.3336C58.3911 24.4027 57.4052 24.5126 56.6426 24.9575C55.7745 25.4639 55.5575 26.1149 55.5575 26.6213C55.5575 27.6341 56.5703 28.5745 58.5235 28.5745C60.9107 28.5745 62.1405 27.2724 62.1405 25.9702C62.1405 25.021 61.6321 24.5802 61.0918 24.1117L61.0918 24.1116C61.0556 24.0803 61.0193 24.0488 60.983 24.017L60.4766 23.6553C60.4532 23.6319 60.4278 23.6084 60.4017 23.5843C60.2672 23.4599 60.1149 23.319 60.1149 23.0766C60.1149 22.7873 60.332 22.5702 60.4766 22.4256C61.0554 21.9915 61.6341 21.4851 61.6341 20.4724C61.6341 19.4925 61.1032 18.9845 60.7871 18.6821ZM59.6809 24.6681H59.3915C59.2469 24.6681 58.5235 24.6681 57.9447 24.8851C57.915 24.9 57.8792 24.9164 57.8388 24.9349L57.8388 24.9349C57.4862 25.0961 56.7873 25.4158 56.7873 26.2596C56.7873 27.2 57.7277 27.9234 59.1745 27.9234C60.4766 27.9234 61.2 27.2724 61.2 26.4766C61.2 25.7532 60.766 25.3915 59.6809 24.6681ZM60.4766 21.0511C60.4766 21.3404 60.4043 21.7745 60.1149 22.0639C59.8979 22.2809 59.5362 22.4256 59.2469 22.4256C58.0171 22.4256 57.5107 20.9064 57.5107 19.966C57.5107 19.6043 57.583 19.2426 57.8 18.9532C58.0171 18.6639 58.3788 18.5192 58.7405 18.5192C59.8979 18.5192 60.4766 20.0383 60.4766 21.0511Z" fill="#F9F9F9"/>
<path id="Shape_4" fill-rule="evenodd" clip-rule="evenodd" d="M48.7574 21.1958C48.7574 22.7873 49.9149 24.4511 52.0851 24.4511C54.3277 24.4511 55.5574 22.7149 55.5574 21.1234C55.5574 19.4596 54.3277 17.8681 52.3021 17.8681C50.2043 17.8681 48.7574 19.3873 48.7574 21.1958ZM54.183 21.7745C54.183 22.2809 54.1106 22.8596 53.7489 23.2936C53.4596 23.7277 52.8809 24.017 52.3745 23.9447C50.7106 23.9447 50.0596 21.7745 50.0596 20.4C50.0596 19.8213 50.2043 19.2426 50.7106 18.7362C51.0723 18.4468 51.5064 18.3021 51.9404 18.3021C53.6043 18.3021 54.183 20.5447 54.183 21.7745Z" fill="#F9F9F9"/>
<path id="Shape_5" fill-rule="evenodd" clip-rule="evenodd" d="M41.3064 21.1958C41.3064 22.7873 42.4638 24.4511 44.6341 24.4511C46.8766 24.4511 48.1064 22.7149 48.1064 21.1234C48.1064 19.4596 46.8766 17.8681 44.8511 17.8681C42.7532 17.8681 41.3064 19.3873 41.3064 21.1958ZM46.8043 21.7745C46.8043 22.2809 46.7319 22.8596 46.3702 23.2936C46.0809 23.7277 45.5021 24.017 44.9958 23.9447C43.3319 23.9447 42.6809 21.7745 42.6809 20.4C42.6809 19.8213 42.8255 19.2426 43.3319 18.7362C43.6936 18.4468 44.1277 18.3021 44.5617 18.3021C46.2255 18.3021 46.8043 20.5447 46.8043 21.7745Z" fill="#F9F9F9"/>
<path id="Path_8" d="M40.2937 24.2341L38.3405 24.6681C37.5447 24.8128 36.8213 24.8852 36.0979 24.8852C32.3362 24.8852 30.8894 22.0639 30.8894 19.8937C30.8894 17.2171 32.9149 14.7575 36.4596 14.7575C37.183 14.7575 37.9064 14.9022 38.5575 15.0469C39.5703 15.3362 40.0766 15.6979 40.366 15.915L39.2086 17.0001L38.7022 17.1447L39.0639 16.566C38.6298 16.132 37.7617 15.2639 36.0979 15.2639C33.9277 15.2639 32.2639 16.9277 32.2639 19.315C32.2639 21.9192 34.1447 24.3064 37.1107 24.3064C37.9788 24.3064 38.4128 24.1618 38.8469 23.9447V21.7022L36.749 21.8469L37.8341 21.2681H40.7277L40.366 21.6298C40.2937 21.7022 40.2213 21.7745 40.2213 21.8469C40.2213 21.9915 40.2213 22.3533 40.2213 22.4979V24.2341H40.2937Z" fill="#F9F9F9"/>
<path id="Path_9" d="M65.0341 23.8C64.6001 23.7277 64.4554 23.6554 64.4554 23.149V23.0043V15.4086V15.3362C64.5277 14.8298 64.6724 14.7575 65.1065 14.5405H63.1533L62.1405 15.0468H63.2256V23.0766V23.5107C63.2256 23.8 63.1533 23.8 62.8639 24.2341H65.3235L65.8299 23.9447C65.4682 23.8724 65.2511 23.8724 65.0341 23.8Z" fill="#F9F9F9"/>
<path id="Shape_6" fill-rule="evenodd" clip-rule="evenodd" d="M70.1703 24.1617L70.6043 23.9447L71.3277 23.2213C70.8937 23.5107 70.3873 23.7277 69.6639 23.7277C68.3618 23.7277 67.2043 22.7149 66.8426 20.9787L67.9277 20.9064L71.1107 19.6043C71.0384 19.2426 70.8214 18.6638 70.1703 18.2298C69.8086 18.0128 69.3022 17.8681 68.7958 17.8681C67.4214 17.8681 65.6852 18.9532 65.6852 21.0511C65.6852 22.0638 66.1192 23.2936 67.0596 23.9447C67.7831 24.4511 68.4341 24.4511 68.8682 24.4511C69.2299 24.4511 69.7362 24.3787 70.1703 24.1617ZM69.6639 19.5319C69.6639 19.749 69.5916 19.8213 69.3022 19.8936L66.7703 20.9787C66.6979 20.7617 66.6979 20.4724 66.6979 20.2553C66.6979 18.8085 67.7107 18.3745 68.2894 18.3745C69.0852 18.3745 69.6639 18.9532 69.6639 19.5319Z" fill="#F9F9F9"/>
<g id="Group_4">
<path id="Path_10" d="M71.9065 18.0128V18.8809H71.7618V18.0128H71.4724V17.9404H72.1958V18.0128H71.9065Z" fill="#F9F9F9"/>
<path id="Path_11" d="M73.1362 18.8809V17.9404L72.8469 18.8809H72.7745L72.4852 17.9404V18.8809H72.4128V17.8681H72.5575L72.7745 18.6638L72.9916 17.8681H73.1362V18.8809Z" fill="#F9F9F9"/>
</g>
</g>
<g id="Group_5">
<path id="Shape_7" fill-rule="evenodd" clip-rule="evenodd" d="M34.7957 8.75317C34.7957 7.45105 34.2893 6.51062 32.8425 6.51062H31.3234V10.9957H32.8425C34.2893 10.9957 34.7957 10.0553 34.7957 8.75317ZM32.8425 10.417H32.0468V7.08934H32.8425C33.7829 7.08934 34.1446 7.74041 34.1446 8.75317C34.1446 9.91062 33.7106 10.417 32.8425 10.417Z" fill="white"/>
<path id="Path_12" d="M35.7361 10.9957V6.51062H36.3872V10.9957H35.7361Z" fill="white"/>
<path id="Path_13" d="M37.834 9.76595C37.9064 10.2 38.1957 10.4894 38.8468 10.4894C39.4255 10.4894 39.7872 10.2 39.7872 9.76595C39.7872 9.40425 39.5702 9.18723 39.0638 9.11489L38.3404 8.89787C37.7617 8.75319 37.2553 8.39148 37.2553 7.74042C37.2553 6.87234 37.9787 6.43829 38.8468 6.43829C39.6426 6.43829 40.4383 6.87234 40.4383 7.74042H39.7872C39.7872 7.30638 39.4255 7.01702 38.8468 7.01702C38.3404 7.01702 37.9787 7.23404 37.9787 7.74042C37.9787 8.02978 38.1957 8.2468 38.6298 8.39148L39.3532 8.60851C40.0043 8.75319 40.5106 9.11489 40.5106 9.83829C40.5106 10.7064 39.7872 11.2128 38.8468 11.2128C37.617 11.2128 37.183 10.4894 37.183 9.91063H37.834V9.76595Z" fill="white"/>
<path id="Shape_8" fill-rule="evenodd" clip-rule="evenodd" d="M44.4893 7.95743C44.4893 7.08934 43.9106 6.51062 43.0425 6.51062H41.3787V10.9957H42.0297V9.40424H43.0425C43.9106 9.40424 44.4893 8.82551 44.4893 7.95743ZM42.6808 8.82551H42.0297V7.08934H42.9702C43.5489 7.08934 43.8382 7.37871 43.8382 7.95743C43.8382 8.68083 43.4042 8.82551 42.6808 8.82551Z" fill="white"/>
<path id="Shape_9" fill-rule="evenodd" clip-rule="evenodd" d="M46.9489 6.43829C45.8638 6.43829 45.1404 7.1617 45.1404 8.46383V9.11489C45.1404 10.3447 45.8638 11.0681 46.9489 11.0681C48.034 11.0681 48.7574 10.3447 48.7574 9.11489V8.46383C48.7574 7.23404 48.034 6.43829 46.9489 6.43829ZM47.0212 10.4894C46.3702 10.4894 45.8638 10.0553 45.8638 9.11489V8.46383C45.8638 7.5234 46.3702 7.01702 47.0212 7.01702C47.6723 7.01702 48.1787 7.5234 48.1787 8.46383V9.11489C48.1787 10.0553 47.6723 10.4894 47.0212 10.4894Z" fill="white"/>
<path id="Path_14" d="M49.7701 10.9957V6.51062H50.3489L52.5191 9.83828V6.51062H53.1701V10.9957H52.5914L50.4212 7.66807V10.9957H49.7701Z" fill="white"/>
<path id="Path_15" d="M54.2553 10.9957V6.51062H54.9064V10.9957H54.2553Z" fill="white"/>
<path id="Shape_10" fill-rule="evenodd" clip-rule="evenodd" d="M56.0638 6.51062H57.7277C58.4511 6.51062 58.9575 6.94466 58.9575 7.59573C58.9575 8.17445 58.6681 8.46381 58.2341 8.60849C58.8128 8.68083 59.2468 9.11488 59.2468 9.6936C59.2468 10.4893 58.5958 10.9234 57.7277 10.9234H56.0638V6.51062ZM56.6426 8.39147H57.2936C57.9447 8.39147 58.3064 8.17445 58.3064 7.74041C58.3064 7.30636 58.017 7.08934 57.583 7.08934H56.6426V8.39147ZM57.366 10.417H56.6426V8.89785H57.6553C58.1617 8.89785 58.5234 9.18722 58.5234 9.6936C58.5234 10.2723 58.017 10.417 57.366 10.417Z" fill="white"/>
<path id="Path_16" d="M62.7191 10.9957H60.0425V6.51062H60.6935V10.3447H62.7191V10.9957Z" fill="white"/>
<path id="Path_17" d="M66.1914 10.9957H63.4425V6.51062H66.1914V7.08934H64.0936V8.39147H66.0468V8.97019H64.0936V10.417H66.1914V10.9957Z" fill="white"/>
<path id="Path_18" d="M71.1829 10.9957H68.434V6.51062H71.1829V7.08934H69.085V8.39147H71.0382V8.97019H69.085V10.417H71.1829V10.9957Z" fill="white"/>
<path id="Path_19" d="M72.051 10.9957V6.51062H72.6297L74.8 9.83828V6.51062H75.451V10.9957H74.8723L72.7021 7.66807V10.9957H72.051Z" fill="white"/>
</g>
</g>
<defs>
<linearGradient id="paint0_linear" x1="7.59402" y1="5.51117" x2="7.59402" y2="28.016" gradientUnits="userSpaceOnUse">
<stop stop-color="#006EE7"/>
<stop offset="0.6464" stop-color="#309EE1"/>
<stop offset="1" stop-color="#46B3DF"/>
</linearGradient>
<linearGradient id="paint1_linear" x1="7.60062" y1="16.7754" x2="21.9967" y2="16.7754" gradientUnits="userSpaceOnUse">
<stop stop-color="#00C753"/>
<stop offset="0.9996" stop-color="#65E83B"/>
</linearGradient>
<linearGradient id="paint2_linear" x1="7.56948" y1="16.7636" x2="7.56948" y2="28.0978" gradientUnits="userSpaceOnUse">
<stop stop-color="#F03028"/>
<stop offset="0.3672" stop-color="#CD305C"/>
<stop offset="0.7933" stop-color="#A82F93"/>
<stop offset="1" stop-color="#992FA9"/>
</linearGradient>
<linearGradient id="paint3_linear" x1="18.9885" y1="13.7414" x2="18.9885" y2="19.7859" gradientUnits="userSpaceOnUse">
<stop stop-color="#FF9320"/>
<stop offset="0.6673" stop-color="#FFC844"/>
<stop offset="1" stop-color="#FFDE53"/>
</linearGradient>
</defs>
</svg>
