<svg width="35" height="39" viewBox="0 0 35 39" fill="none" xmlns="http://www.w3.org/2000/svg">
<path d="M17.4883 2C8.94582 2 2 8.74481 2 17.0401C2 23.0718 5.82508 28.1861 9.54658 31.7956C13.2681 35.4051 16.992 37.5696 16.992 37.5696C17.2989 37.7487 17.6825 37.7487 17.9893 37.5696C17.9893 37.5696 21.7133 35.4051 25.4348 31.7956C29.1563 28.1861 32.9776 23.0718 32.9776 17.0401C32.9776 8.74481 26.0308 2 17.4883 2Z" stroke="#00C4EE" stroke-width="2.4"/>
<path d="M9.50279 18.2573C8.93857 18.2573 8.47693 17.8093 8.47693 17.2616C8.47693 13.6274 10.8364 10.3416 14.35 9.07211C14.8885 8.87297 15.4784 9.14678 15.6836 9.66952C15.8888 10.1923 15.6066 10.7648 15.0681 10.9639C12.3495 11.9347 10.5543 14.4737 10.5543 17.2616C10.5286 17.8093 10.067 18.2573 9.50279 18.2573Z" fill="#00C4EE"/>
<path d="M17.4531 25.9738C14.1191 25.9738 11.0928 24.2065 9.50274 21.3439C9.24628 20.846 9.4258 20.2486 9.93873 19.9748C10.4517 19.7259 11.0672 19.9001 11.3493 20.398C12.5547 22.5885 14.8885 23.9576 17.4531 23.9576H17.4788C19.3253 23.9576 21.0693 23.2357 22.3516 21.9662C23.6596 20.6967 24.352 19.004 24.352 17.2118C24.3264 13.8513 21.7361 11.0136 18.3251 10.5905C17.7609 10.5158 17.3506 10.018 17.4275 9.47032C17.5044 8.9227 18.0174 8.52442 18.5816 8.5991C23.0184 9.14672 26.4038 12.8557 26.4294 17.2118C26.4551 19.5516 25.5318 21.7422 23.8391 23.385C22.1465 25.0528 19.8896 25.9738 17.5044 25.9738C17.4788 25.9738 17.4531 25.9738 17.4531 25.9738Z" fill="#00C4EE"/>
</svg>
