<svg width="125" height="31" viewBox="0 0 125 31" fill="none" xmlns="http://www.w3.org/2000/svg">
<path d="M38.3999 19.3C37.5999 19.3 36.8999 18.6 36.8999 17.8C36.8999 12.3 40.3999 7.30002 45.4999 5.40002C46.2999 5.10002 47.1999 5.50002 47.4999 6.30002C47.7999 7.10002 47.3999 8.00002 46.5999 8.30002C42.5999 9.80002 39.9999 13.6 39.9999 17.8C39.8999 18.6 39.1999 19.3 38.3999 19.3Z" fill="white"/>
<path d="M103.4 19.5V19.5C99.4002 19.5 96.2002 16.4 96.2002 12.3C96.2002 9.49998 97.4002 7.79998 98.5002 6.89998C99.8002 5.69998 101.5 5.09998 103.4 5.09998C106.9 5.09998 110.4 7.49998 110.4 12V17.8C110.4 18.6 109.7 19.3 108.9 19.3C108.1 19.3 107.4 18.6 107.4 17.8V12C107.4 9.39998 105.4 8.09998 103.5 8.09998C102.4 8.09998 101.4 8.59998 100.6 9.19998C99.8002 9.89998 99.3002 11 99.3002 12.3C99.3002 14.6 101.1 16.4 103.5 16.4C104 16.4 104.4 16.4 104.8 16.3C105.6 16.1 106.4 16.7 106.6 17.5C106.8 18.3 106.2 19.1 105.4 19.3C104.7 19.5 104.1 19.5 103.4 19.5Z" fill="white"/>
<path d="M87.0999 19.5C85.2999 19.5 83.4999 18.9 82.1999 17.7C81.1999 16.8 79.8999 15.1 79.8999 12.3C79.8999 8.3 83.0999 5.1 87.0999 5.1V5.1C87.7999 5.1 88.3999 5.1 88.9999 5.3C89.7999 5.5 90.3999 6.2 90.1999 7.1C89.9999 7.9 89.2999 8.5 88.3999 8.3C87.9999 8.2 87.5999 8.2 87.0999 8.2V8.2C84.6999 8.2 82.8999 10 82.8999 12.3C82.8999 15.2 84.8999 16.6 86.9999 16.6C88.9999 16.6 90.9999 15.3 90.9999 12.7V1.5C90.9999 0.7 91.6999 0 92.4999 0C93.2999 0 93.9999 0.7 93.9999 1.5V12.7C94.0999 17.2 90.5999 19.5 87.0999 19.5Z" fill="white"/>
<path d="M55.6 19.5C52.3 19.5 49 17.1 49 12.5V6.80005C49 6.00005 49.7 5.30005 50.5 5.30005C51.3 5.30005 52 6.00005 52 6.80005V12.5C52 15.2 53.8 16.6 55.5 16.6C57.3 16.6 59 15.3 59 12.5V6.80005C59 6.00005 59.7 5.30005 60.5 5.30005C61.3 5.30005 62 6.00005 62 6.80005V12.5C62.1 17.1 58.8 19.5 55.6 19.5Z" fill="white"/>
<path d="M67.9 12.2C67.9 12.9 68.5 13.5 69.2 13.5H76.7C77 13.5 77.3 13.4 77.6 13.2C78 12.9 78.2 12.5 78.2 12C78.2 7.49998 74.7 5.09998 71.2 5.09998C69.3 5.09998 67.6 5.69998 66.3 6.89998C65.3 7.79998 64 9.49998 64 12.3C64 16.3 67.2 19.5 71.2 19.5V19.5C72.8 19.5 74.5 19.3 76.7 17.7C77.4 17.2 77.5 16.3 77 15.6C76.5 14.9 75.6 14.8 74.9 15.3C73.5 16.3 72.4 16.6 71.1 16.6V16.6C68.7 16.6 66.9 14.7 66.9 12.3C66.9 10.9 67.3 9.89998 68.2 9.09998C69 8.39998 70 7.89998 71.1 7.89998C72.8 7.89998 74.5 8.79998 75 10.7H69.1C68.5 10.8 67.9 11.4 67.9 12.2Z" fill="white"/>
<path d="M123.1 16.3H116.6L124.1 8C124.3 7.8 124.5 7.4 124.5 6.9C124.5 6.1 123.9 5.5 123.1 5.5H113.6C112.8 5.5 112.2 6.1 112.2 6.9C112.2 7.7 112.8 8.3 113.6 8.3H119.9L112.5 16.5C112 17.1 112 18 112.6 18.6C112.9 18.8 113.2 19 113.8 19H123.2C124 19 124.6 18.4 124.6 17.6C124.5 16.9 123.9 16.3 123.1 16.3Z" fill="white"/>
<path d="M1.5 19.3C0.7 19.3 0 18.6 0 17.8C0 12.3 3.5 7.30002 8.6 5.40002C9.4 5.10002 10.3 5.50002 10.6 6.30002C10.9 7.10002 10.5 8.00002 9.7 8.30002C5.7 9.80002 3.1 13.6 3.1 17.8C3 18.6 2.3 19.3 1.5 19.3Z" fill="white"/>
<path d="M13.2001 31C8.30006 31 3.90006 28.3 1.60006 24C1.20006 23.3 1.50006 22.3 2.20006 21.9C2.90006 21.5 3.90006 21.8 4.30006 22.5C6.10006 25.8 9.50006 27.9 13.3001 27.9C13.3001 27.9 13.3001 27.9 13.4001 27.9C16.1001 27.9 18.7001 26.8 20.6001 24.9C22.5001 23 23.5001 20.4 23.5001 17.7C23.5001 12.6 19.7001 8.29999 14.7001 7.69999C13.9001 7.59999 13.3001 6.79999 13.4001 5.99999C13.5001 5.19999 14.3001 4.59999 15.1001 4.69999C21.6001 5.49999 26.6001 11.1 26.6001 17.7C26.6001 21.2 25.3001 24.5 22.8001 27C20.1001 29.6 16.8001 31 13.2001 31V31Z" fill="#14E0F0"/>
</svg>
