<svg xmlns="http://www.w3.org/2000/svg" width="32" height="38" viewBox="0 0 32 38">
    <g fill="none" fill-rule="evenodd">
        <g fill="#000">
            <path fill-rule="nonzero" d="M16 0C7.175 0 0 7.179 0 16.007c0 6.42 3.951 11.863 7.796 15.705 3.844 3.841 7.69 6.145 7.69 6.145a1 1 0 0 0 1.031 0s3.847-2.304 7.691-6.145C28.053 27.87 32 22.427 32 16.007 32 7.18 24.824 0 16 0zm0 9.002c3.854 0 7.001 3.15 7.001 7.005 0 3.856-3.147 7.005-7.001 7.005-3.855 0-6.997-3.149-6.997-7.005S12.145 9.002 16 9.002z"/>
            <ellipse cx="16" cy="16.031" rx="8.889" ry="8.906"/>
        </g>
        <g fill-rule="nonzero">
            <path fill="#FFF" d="M6.332 17.27c-.681 0-1.239-.557-1.239-1.239 0-4.524 2.85-8.614 7.096-10.194.65-.248 1.363.093 1.611.743.248.651-.093 1.364-.744 1.612C9.772 9.4 7.603 12.56 7.603 16.03c-.031.682-.589 1.24-1.27 1.24z"/>
            <path fill="#00DDF0" d="M15.938 26.876c-4.028 0-7.684-2.2-9.606-5.763a1.275 1.275 0 0 1 .527-1.705 1.275 1.275 0 0 1 1.704.527 8.348 8.348 0 0 0 7.375 4.431h.031a8.226 8.226 0 0 0 5.887-2.479c1.58-1.58 2.417-3.687 2.417-5.918-.03-4.183-3.16-7.715-7.281-8.242-.682-.093-1.178-.713-1.085-1.395.093-.681.713-1.177 1.394-1.084 5.361.682 9.451 5.298 9.482 10.721a10.621 10.621 0 0 1-3.13 7.685c-2.045 2.076-4.771 3.222-7.653 3.222h-.062z"/>
        </g>
    </g>
</svg>
